arm28_CheckCMCwithFD_states
version=1
nRows=16
nColumns=21
inDegrees=yes

# SIMM Motion File Header:
name arm28_CheckCMCwithFD_states
datacolumns 21
datarows 16
otherdata 1
range 0.03000000 0.05860285
endheader
time	r_shoulder_elev	r_elbow_flex	r_shoulder_elev_u	r_elbow_flex_u	TRIlong.activation	TRIlong.fiber_length	TRIlat.activation	TRIlat.fiber_length	TRImed.activation	TRImed.fiber_length	BIClong.activation	BIClong.fiber_length	BICshort.activation	BICshort.fiber_length	BRA.activation	BRA.fiber_length	DeltAnt.activation	DeltAnt.fiber_length	DeltPost.activation	DeltPost.fiber_length
      0.03000000	      0.00000000	     19.99999998	      0.00000000	      0.00000000	      0.05000000	      0.14386587	      0.05000000	      0.07785696	      0.05000000	      0.07291275	      0.08940816	      0.13947633	      0.10718470	      0.14134648	      0.05198892	      0.08637751	      0.05000000	      0.16196831	      0.10768258	      0.10836728
      0.03018723	     -0.00000075	     20.00000163	     -0.00792039	      0.01750750	      0.05000000	      0.14386587	      0.05000000	      0.07785696	      0.05000000	      0.07291275	      0.08946237	      0.13947713	      0.10722722	      0.14134729	      0.05198927	      0.08637750	      0.05000000	      0.16196831	      0.10767559	      0.10836730
      0.03037446	     -0.00000294	     20.00000647	     -0.01544536	      0.03393668	      0.05000000	      0.14386587	      0.05000000	      0.07785696	      0.05000000	      0.07291275	      0.08988712	      0.13947788	      0.10760844	      0.14134805	      0.05198962	      0.08637750	      0.05000000	      0.16196831	      0.10766830	      0.10836732
      0.03131062	     -0.00003299	     20.00007134	     -0.04708406	      0.10035881	      0.05000000	      0.14386587	      0.05000000	      0.07785696	      0.05000000	      0.07291275	      0.09182754	      0.13948086	      0.10935669	      0.14135117	      0.05199117	      0.08637747	      0.05000000	      0.16196831	      0.10763218	      0.10836742
      0.03477913	     -0.00029217	     20.00058533	     -0.08248441	      0.15047741	      0.05000000	      0.14386588	      0.05000000	      0.07785699	      0.05000000	      0.07291279	      0.09693782	      0.13948425	      0.11402439	      0.14135565	      0.05199515	      0.08637738	      0.05000000	      0.16196836	      0.10750317	      0.10836775
      0.03824764	     -0.00050418	     20.00090766	     -0.03233833	      0.02445875	      0.05000000	      0.14386589	      0.05000000	      0.07785707	      0.05000000	      0.07291287	      0.09989457	      0.13947891	      0.11678422	      0.14135248	      0.05199734	      0.08637731	      0.05000000	      0.16196847	      0.10738138	      0.10836800
      0.03990154	     -0.00053225	     20.00089644	     -0.00207097	     -0.03510870	      0.05000000	      0.14386589	      0.05000000	      0.07785710	      0.05000000	      0.07291290	      0.10083198	      0.13947448	      0.11767326	      0.14134910	      0.05199800	      0.08637729	      0.05000000	      0.16196851	      0.10732573	      0.10836812
      0.04081098	     -0.00052732	     20.00085327	      0.01262957	     -0.05866855	      0.05000000	      0.14386589	      0.05000000	      0.07785712	      0.05000000	      0.07291292	      0.10035655	      0.13947209	      0.11702838	      0.14134732	      0.05199829	      0.08637728	      0.05000000	      0.16196853	      0.10731667	      0.10836818
      0.04208018	     -0.00049967	     20.00076334	      0.03048013	     -0.08142587	      0.05000000	      0.14386589	      0.05000000	      0.07785713	      0.05000000	      0.07291294	      0.09945129	      0.13946991	      0.11585157	      0.14134619	      0.05199863	      0.08637727	      0.05000000	      0.16196855	      0.10731001	      0.10836826
      0.04642154	     -0.00025748	     20.00030680	      0.07953620	     -0.12660972	      0.05000000	      0.14386586	      0.05000000	      0.07785714	      0.05000000	      0.07291294	      0.09650500	      0.13946982	      0.11203225	      0.14134907	      0.05199935	      0.08637726	      0.05000000	      0.16196853	      0.10728828	      0.10836853
      0.04880157	     -0.00003726	     19.99996779	      0.10609675	     -0.16170579	      0.05000000	      0.14386585	      0.05000000	      0.07785710	      0.05000000	      0.07291289	      0.09498318	      0.13947227	      0.11006594	      0.14135352	      0.05199957	      0.08637726	      0.05000000	      0.16196844	      0.10727701	      0.10836869
      0.04996234	      0.00009421	     19.99976564	      0.12061875	     -0.18775189	      0.05000000	      0.14386585	      0.05000000	      0.07785706	      0.05000000	      0.07291285	      0.09426371	      0.13947398	      0.10913787	      0.14135633	      0.05199965	      0.08637727	      0.05000000	      0.16196838	      0.10727167	      0.10836877
      0.05046503	      0.00015651	     19.99966792	      0.12730310	     -0.20125826	      0.05000000	      0.14386585	      0.05000000	      0.07785705	      0.05000000	      0.07291283	      0.09420218	      0.13947480	      0.10906602	      0.14135763	      0.05224305	      0.08637722	      0.05000000	      0.16196835	      0.10727069	      0.10836881
      0.05108478	      0.00023801	     19.99953764	      0.13572027	     -0.21938421	      0.05000000	      0.14386585	      0.05000000	      0.07785702	      0.05000000	      0.07291281	      0.09445981	      0.13947575	      0.10943294	      0.14135912	      0.05267249	      0.08637694	      0.05000000	      0.16196831	      0.10727036	      0.10836887
      0.05418357	      0.00071802	     19.99871581	      0.17130144	     -0.30746173	      0.05000000	      0.14386584	      0.05000000	      0.07785685	      0.05000000	      0.07291262	      0.09543163	      0.13947911	      0.11082915	      0.14136444	      0.05424418	      0.08637317	      0.05000000	      0.16196808	      0.10726875	      0.10836915
      0.05860285	      0.00151447	     19.99721263	      0.18065616	     -0.35489029	      0.05000000	      0.14386579	      0.05000000	      0.07785645	      0.05000000	      0.07291221	      0.09621024	      0.13948149	      0.11196899	      0.14136820	      0.05542836	      0.08636660	      0.05000000	      0.16196764	      0.10726659	      0.10836966
